<svg xmlns="http://www.w3.org/2000/svg" xmlns:xlink="http://www.w3.org/1999/xlink" viewBox="0 0 325 161"><defs><style>.cls-1{fill:url(#linear-gradient);}.cls-2{fill:#fff;}</style><linearGradient id="linear-gradient" x1="0.5" y1="80.5" x2="324.5" y2="80.5" gradientUnits="userSpaceOnUse"><stop offset="0" stop-color="#1b1464"/><stop offset="1"/></linearGradient></defs><g id="Layer_2" data-name="Layer 2"><g id="Layer_1-2" data-name="Layer 1"><ellipse class="cls-1" cx="162.5" cy="80.5" rx="162" ry="80"/><path d="M162.5,1C251.55,1,324,36.66,324,80.5S251.55,160,162.5,160,1,124.34,1,80.5,73.45,1,162.5,1m0-1C72.75,0,0,36,0,80.5S72.75,161,162.5,161,325,125,325,80.5,252.25,0,162.5,0Z"/><ellipse class="cls-2" cx="201" cy="87" rx="21.5" ry="43.5"/><path d="M201,44c11.58,0,21,19.29,21,43s-9.42,43-21,43-21-19.29-21-43,9.42-43,21-43m0-1c-12.15,0-22,19.7-22,44s9.85,44,22,44,22-19.7,22-44-9.85-44-22-44Z"/><ellipse class="cls-2" cx="119.5" cy="87" rx="21" ry="43.5"/><path d="M119.5,44c5.34,0,10.42,4.38,14.3,12.33C137.8,64.5,140,75.4,140,87s-2.2,22.5-6.2,30.67c-3.88,8-9,12.33-14.3,12.33s-10.42-4.38-14.3-12.33C101.2,109.5,99,98.6,99,87s2.2-22.5,6.2-30.67c3.88-7.95,9-12.33,14.3-12.33m0-1C107.63,43,98,62.7,98,87s9.63,44,21.5,44S141,111.3,141,87s-9.63-44-21.5-44Z"/></g></g></svg>