<svg xmlns="http://www.w3.org/2000/svg" xmlns:xlink="http://www.w3.org/1999/xlink" viewBox="0 0 589 184"><defs><style>.cls-1{fill:blue;}.cls-2{fill:#fff;}.cls-3{fill:url(#linear-gradient);}</style><linearGradient id="linear-gradient" x1="473.5" y1="92" x2="520.5" y2="92" gradientUnits="userSpaceOnUse"><stop offset="0" stop-color="#f7931e"/><stop offset="1" stop-color="#f15a24"/></linearGradient></defs><g id="Layer_2" data-name="Layer 2"><g id="Layer_1-2" data-name="Layer 1"><ellipse class="cls-1" cx="162.5" cy="85.5" rx="162" ry="80"/><path d="M162.5,6C251.55,6,324,41.66,324,85.5S251.55,165,162.5,165,1,129.34,1,85.5,73.45,6,162.5,6m0-1C72.75,5,0,41,0,85.5S72.75,166,162.5,166,325,130,325,85.5,252.25,5,162.5,5Z"/><ellipse class="cls-2" cx="244" cy="89" rx="21.5" ry="43.5"/><path d="M244,46c11.58,0,21,19.29,21,43s-9.42,43-21,43-21-19.29-21-43,9.42-43,21-43m0-1c-12.15,0-22,19.7-22,44s9.85,44,22,44,22-19.7,22-44-9.85-44-22-44Z"/><ellipse class="cls-2" cx="149.5" cy="89" rx="21" ry="43.5"/><path d="M149.5,46c5.34,0,10.42,4.38,14.3,12.33C167.8,66.5,170,77.4,170,89s-2.2,22.5-6.2,30.67c-3.88,8-9,12.33-14.3,12.33s-10.42-4.38-14.3-12.33c-4-8.17-6.2-19.07-6.2-30.67s2.2-22.5,6.2-30.67c3.88-7.95,9-12.33,14.3-12.33m0-1C137.63,45,128,64.7,128,89s9.63,44,21.5,44S171,113.3,171,89s-9.63-44-21.5-44Z"/><circle class="cls-3" cx="497" cy="92" r="23.5"/><path d="M497,69a23,23,0,1,1-23,23,23,23,0,0,1,23-23m0-1a24,24,0,1,0,24,24,24,24,0,0,0-24-24Z"/><ellipse class="cls-2" cx="495" cy="34" rx="11.5" ry="33.5"/><path d="M495,1c5.31,0,11,13.26,11,33s-5.69,33-11,33-11-13.26-11-33,5.69-33,11-33m0-1c-6.63,0-12,15.22-12,34s5.37,34,12,34,12-15.22,12-34S501.63,0,495,0Z"/><path class="cls-2" d="M487.54,71C481.39,71,474,57.44,470.7,40.15c-1.69-8.87-2.06-17.43-1-24.1,1-6.42,3.19-10.41,6.07-11a4.4,4.4,0,0,1,.73-.07C482.61,5,490,18.56,493.3,35.85c1.69,8.87,2.06,17.43,1,24.1-1,6.42-3.19,10.41-6.07,11A4.4,4.4,0,0,1,487.54,71Z"/><path d="M476.46,5.52c5.07,0,12.77,11.63,16.35,30.42,1.67,8.81,2,17.32,1,23.94-1,6.19-3,10-5.68,10.54a3.21,3.21,0,0,1-.63.06c-5.07,0-12.77-11.63-16.35-30.42-1.67-8.81-2-17.32-1-23.94,1-6.19,3-10,5.68-10.54a3.21,3.21,0,0,1,.63-.06m0-1a4.47,4.47,0,0,0-.82.08c-6.51,1.24-8.94,17.2-5.43,35.65,3.37,17.68,11,31.23,17.33,31.23a4.47,4.47,0,0,0,.82-.08c6.51-1.24,8.94-17.2,5.43-35.65-3.37-17.68-11-31.23-17.33-31.23Z"/><ellipse class="cls-2" cx="498" cy="150" rx="11.5" ry="33.5"/><path d="M498,117c5.31,0,11,13.26,11,33s-5.69,33-11,33-11-13.26-11-33,5.69-33,11-33m0-1c-6.63,0-12,15.22-12,34s5.37,34,12,34,12-15.22,12-34-5.37-34-12-34Z"/><path class="cls-2" d="M438.54,103.55c-18.19,0-33-5.07-33-11.32s15.28-11.58,33.44-11.68h.52c18.19,0,33,5.08,33,11.32s-15.28,11.59-33.44,11.68Z"/><path d="M439.46,80.05v1h0c19.43,0,32.51,5.6,32.54,10.83,0,2.71-3.36,5.47-9.25,7.59-6.31,2.26-14.72,3.54-23.69,3.58h-.52c-19.43,0-32.51-5.59-32.54-10.82,0-2.71,3.36-5.48,9.25-7.59,6.31-2.27,14.72-3.54,23.69-3.59h.52v-1m0,0h-.52c-18.78.1-34,5.56-33.94,12.19s15,11.81,33.54,11.81h.52c18.78-.1,34-5.55,33.94-12.18s-15-11.82-33.54-11.82Z"/><path class="cls-2" d="M545.24,166.44c-6.28,0-17.12-9.25-25.76-22-10.19-15-14.44-30.68-9.28-34.18a4.5,4.5,0,0,1,2.56-.71c6.28,0,17.12,9.25,25.76,22,10.19,15,14.44,30.68,9.28,34.18A4.5,4.5,0,0,1,545.24,166.44Z"/><path d="M512.76,110.06h0c6.13,0,16.79,9.15,25.34,21.77,11.08,16.33,13.82,30.5,9.42,33.48a4,4,0,0,1-2.28.63c-6.13,0-16.79-9.15-25.34-21.77-11.08-16.33-13.82-30.5-9.42-33.48a4,4,0,0,1,2.28-.63m0-1a5,5,0,0,0-2.84.8c-5.49,3.72-1.39,19.33,9.15,34.88,9,13.27,19.8,22.2,26.17,22.2a5,5,0,0,0,2.84-.8c5.49-3.72,1.39-19.33-9.15-34.88-9-13.27-19.8-22.2-26.17-22.2Z"/><path class="cls-2" d="M554.54,103.09c-18.19,0-33-5.07-33-11.32,0-2.93,3.48-5.87,9.58-8.06,6.36-2.28,14.83-3.57,23.86-3.62h.52c18.19,0,33,5.08,33,11.32,0,2.94-3.48,5.88-9.58,8.07-6.36,2.28-14.83,3.56-23.86,3.61Z"/><path d="M555.46,79.59v1h0c19.42,0,32.5,5.6,32.53,10.83s-13.2,11.07-32.94,11.17h-.52C535.11,102.59,522,97,522,91.77s13.2-11.07,32.94-11.18h.52v-1m0,0h-.52c-18.78.1-34,5.56-33.94,12.19s15,11.81,33.54,11.81h.52c18.78-.1,34-5.55,33.94-12.18s-15-11.82-33.54-11.82Z"/><path class="cls-2" d="M570.36,133.71c-7.05,0-16.55-2.45-26.07-6.72-16.57-7.44-28.4-18.52-25.85-24.21,1-2.25,4.28-3.49,9.2-3.49,7.05,0,16.55,2.45,26.07,6.72,16.57,7.44,28.4,18.52,25.85,24.21C578.55,132.47,575.28,133.71,570.36,133.71Z"/><path d="M527.64,98.79v1c7,0,16.41,2.43,25.87,6.67,8.18,3.68,15.36,8.25,20.21,12.87,4.53,4.32,6.49,8.21,5.39,10.69-.93,2.06-4,3.19-8.75,3.19-7,0-16.41-2.43-25.87-6.67-8.18-3.68-15.36-8.25-20.21-12.87-4.53-4.32-6.49-8.21-5.39-10.69.93-2.06,4-3.19,8.75-3.19v-1m0,0c-5,0-8.51,1.23-9.66,3.78-2.71,6.05,9,17.19,26.11,24.88,9.9,4.44,19.45,6.76,26.27,6.76,5,0,8.51-1.23,9.66-3.78,2.71-6.05-9-17.19-26.11-24.88-9.9-4.44-19.45-6.76-26.27-6.76Z"/><path class="cls-2" d="M468.36,79.71c-7.05,0-16.55-2.45-26.07-6.72-16.57-7.44-28.4-18.52-25.85-24.21,1-2.25,4.28-3.49,9.2-3.49,7.05,0,16.55,2.45,26.07,6.72,16.57,7.44,28.4,18.52,25.85,24.21C476.55,78.47,473.28,79.71,468.36,79.71Z"/><path d="M425.64,44.79v1c7,0,16.41,2.43,25.87,6.67,8.18,3.68,15.36,8.25,20.21,12.87,4.53,4.32,6.49,8.21,5.39,10.69-.93,2.06-4,3.19-8.75,3.19-7,0-16.41-2.43-25.87-6.67-8.18-3.68-15.36-8.25-20.21-12.87-4.53-4.32-6.49-8.21-5.39-10.69.93-2.06,4-3.19,8.75-3.19v-1m0,0c-5,0-8.51,1.23-9.66,3.78-2.71,6,9,17.19,26.11,24.88,9.9,4.44,19.45,6.76,26.27,6.76,5,0,8.51-1.23,9.66-3.78,2.71-6.05-9-17.19-26.11-24.88-9.9-4.44-19.45-6.76-26.27-6.76Z"/><path class="cls-2" d="M528.65,83.44c-6.09,0-10-1.45-11-4.1s1.21-6.72,6.17-10.9c5.17-4.35,12.66-8.51,21.11-11.7,8.72-3.29,17.62-5.18,24.41-5.18,6.09,0,10,1.45,11,4.1s-1.21,6.72-6.17,10.9c-5.17,4.35-12.66,8.51-21.11,11.7C544.34,81.55,535.44,83.44,528.65,83.44Z"/><path d="M569.35,52.06h0c5.78,0,9.61,1.37,10.52,3.78,1.88,5-8.52,15-27,22-8.67,3.28-17.51,5.15-24.24,5.15-5.78,0-9.61-1.37-10.52-3.78-1.88-5,8.52-15,27-21.95,8.67-3.28,17.51-5.15,24.24-5.15m0-1c-6.63,0-15.42,1.75-24.59,5.21-17.57,6.64-29.91,17-27.57,23.25,1.12,3,5.39,4.42,11.46,4.42,6.63,0,15.42-1.75,24.59-5.21,17.57-6.64,29.91-17.05,27.57-23.25-1.12-3-5.39-4.42-11.46-4.42Z"/><path class="cls-2" d="M426.65,136.44c-6.09,0-10-1.45-11-4.1s1.21-6.72,6.17-10.9c5.17-4.35,12.66-8.51,21.11-11.7,8.72-3.29,17.62-5.18,24.41-5.18,6.09,0,10,1.45,11,4.1s-1.21,6.72-6.17,10.9c-5.17,4.35-12.66,8.51-21.11,11.7C442.34,134.55,433.44,136.44,426.65,136.44Z"/><path d="M467.35,105.06h0c5.78,0,9.61,1.37,10.52,3.78,1.88,5-8.52,15-27,21.95-8.67,3.28-17.51,5.15-24.24,5.15-5.78,0-9.61-1.37-10.52-3.78-1.88-5,8.52-15,27-22,8.67-3.28,17.51-5.15,24.24-5.15m0-1c-6.63,0-15.42,1.75-24.59,5.21-17.57,6.64-29.91,17-27.57,23.25,1.12,3,5.39,4.42,11.46,4.42,6.63,0,15.42-1.75,24.59-5.21,17.57-6.64,29.91-17,27.57-23.25-1.12-3-5.39-4.42-11.46-4.42Z"/><path class="cls-2" d="M524.17,177.85c-6.08,0-14.52-12.82-19.22-29.17-5-17.45-4.2-33.65,1.79-35.38a4,4,0,0,1,1.09-.15c6.08,0,14.52,12.82,19.22,29.17,2.5,8.68,3.65,17.17,3.25,23.91-.38,6.48-2.22,10.65-5,11.47A4,4,0,0,1,524.17,177.85Z"/><path d="M507.83,113.65c5.14,0,13.56,10.78,18.74,28.81,5.46,19,3.66,33.29-1.45,34.75a3.31,3.31,0,0,1-1,.14c-5.14,0-13.56-10.78-18.74-28.81-5.46-19-3.66-33.29,1.45-34.75a3.31,3.31,0,0,1,.95-.14m0-1a4.62,4.62,0,0,0-1.23.17c-6.37,1.84-7.32,18-2.13,36,4.86,16.92,13.4,29.53,19.7,29.53a4.62,4.62,0,0,0,1.23-.17c6.37-1.84,7.32-18,2.13-36-4.86-16.92-13.4-29.53-19.7-29.53Z"/><path class="cls-2" d="M478.88,74.61c-6.44,0-17.49-8.2-26.86-19.93-11.34-14.19-16.8-29.46-11.93-33.35a4.75,4.75,0,0,1,3-.94c6.44,0,17.49,8.2,26.86,19.93,11.34,14.19,16.8,29.46,11.93,33.35A4.75,4.75,0,0,1,478.88,74.61Z"/><path d="M443.12,20.89h0c6.3,0,17.19,8.12,26.47,19.74,5.6,7,9.9,14.36,12.1,20.69,2.06,5.91,2,10.27-.09,12a4.24,4.24,0,0,1-2.72.83c-6.3,0-17.19-8.12-26.47-19.74-5.6-7-9.9-14.36-12.1-20.69-2.06-5.91-2-10.27.09-12a4.24,4.24,0,0,1,2.72-.83m0-1a5.17,5.17,0,0,0-3.34,1.05c-5.18,4.13.12,19.38,11.84,34.05,9.72,12.17,20.81,20.12,27.26,20.12a5.17,5.17,0,0,0,3.34-1c5.18-4.13-.12-19.38-11.84-34.05-9.72-12.17-20.81-20.12-27.26-20.12Z"/><path class="cls-2" d="M502.22,70.21a3.8,3.8,0,0,1-.89-.1c-6.07-1.43-7.68-17.57-3.52-35.24,4-16.87,11.86-30.08,18-30.08a3.8,3.8,0,0,1,.89.1c6.07,1.43,7.68,17.57,3.52,35.24C516.23,57,508.33,70.21,502.22,70.21Z"/><path d="M515.78,4.29v1a3.33,3.33,0,0,1,.78.09c5.17,1.21,7.67,15.42,3.15,34.64-4.32,18.34-12.44,29.69-17.49,29.69a3.33,3.33,0,0,1-.78-.09c-5.17-1.21-7.67-15.42-3.15-34.64,4.32-18.34,12.44-29.69,17.49-29.69v-1m0,0c-6.32,0-14.38,13.12-18.46,30.46C493,53,494.76,69.08,501.21,70.6a4.88,4.88,0,0,0,1,.11c6.32,0,14.38-13.12,18.46-30.46C525,22,523.24,5.92,516.79,4.4a4.88,4.88,0,0,0-1-.11Z"/><path class="cls-2" d="M479.22,180.21a3.8,3.8,0,0,1-.89-.1c-2.86-.67-4.9-4.76-5.6-11.2-.73-6.72,0-15.26,2.08-24,4-16.87,11.86-30.08,18-30.08a3.8,3.8,0,0,1,.89.1c6.07,1.43,7.68,17.57,3.52,35.24C493.23,167,485.33,180.21,479.22,180.21Z"/><path d="M492.78,114.29v1a3.33,3.33,0,0,1,.78.09c5.17,1.21,7.67,15.42,3.15,34.64-4.32,18.34-12.44,29.69-17.49,29.69a3.33,3.33,0,0,1-.78-.09c-5.17-1.21-7.67-15.42-3.15-34.64,4.32-18.34,12.44-29.69,17.49-29.69v-1m0,0c-6.32,0-14.38,13.12-18.46,30.46-4.3,18.28-2.56,34.33,3.89,35.85a4.88,4.88,0,0,0,1,.11c6.32,0,14.38-13.12,18.46-30.46,4.3-18.28,2.56-34.33-3.89-35.85a4.88,4.88,0,0,0-1-.11Z"/><path class="cls-2" d="M447.22,165.53a4.57,4.57,0,0,1-2.71-.78c-2.39-1.71-2.72-6.26-.92-12.49,1.88-6.49,5.8-14.11,11.06-21.45,9-12.56,19.73-21.34,26.13-21.34a4.57,4.57,0,0,1,2.71.78c5.07,3.63.43,19.17-10.14,33.94C464.37,156.75,453.62,165.53,447.22,165.53Z"/><path d="M480.78,110h0a4,4,0,0,1,2.42.69c2.2,1.58,2.47,5.93.73,11.94-1.86,6.44-5.76,14-11,21.3C464.19,156.14,453.37,165,447.22,165a4,4,0,0,1-2.42-.69c-2.2-1.58-2.47-5.93-.73-11.94,1.86-6.44,5.76-14,11-21.3,8.76-12.24,19.58-21.13,25.73-21.13m0-1c-6.39,0-17.29,8.62-26.54,21.55-10.92,15.27-15.41,30.78-10,34.63a5,5,0,0,0,3,.88c6.39,0,17.29-8.62,26.54-21.55,10.92-15.27,15.41-30.78,10-34.63a5,5,0,0,0-3-.88Z"/><path class="cls-2" d="M422.19,123.9c-6.2,0-10.17-1.48-11.17-4.17-2.17-5.84,10.38-16.12,27.4-22.45,8.77-3.26,17.38-5,24.24-5,6.2,0,10.17,1.48,11.17,4.16,2.17,5.85-10.38,16.13-27.4,22.45C437.66,122.1,429.05,123.9,422.19,123.9Z"/><path d="M462.66,91.73v1c5.89,0,9.79,1.4,10.7,3.84s-1.27,6.29-6.08,10.3c-5.15,4.3-12.61,8.38-21,11.5-8.59,3.2-17.36,5-24.07,5-5.89,0-9.79-1.4-10.7-3.84-1.85-5,8.6-14.93,27.1-21.81,8.59-3.19,17.37-5,24.07-5v-1m0,0c-6.61,0-15.32,1.7-24.41,5.09-17.61,6.54-30,16.88-27.69,23.09,1.11,3,5.45,4.49,11.63,4.49,6.61,0,15.32-1.71,24.42-5.09,17.6-6.54,30-16.88,27.69-23.09-1.12-3-5.46-4.49-11.64-4.49Z"/><path class="cls-2" d="M512.22,72.53a4.57,4.57,0,0,1-2.71-.78c-5.07-3.63-.43-19.17,10.14-33.94,9-12.56,19.73-21.34,26.13-21.34a4.57,4.57,0,0,1,2.71.78c5.07,3.63.43,19.17-10.14,33.94C529.37,63.75,518.62,72.53,512.22,72.53Z"/><path d="M545.78,17h0a4,4,0,0,1,2.42.69c2.2,1.58,2.47,5.93.73,11.94-1.86,6.44-5.76,14-11,21.3C529.19,63.14,518.37,72,512.22,72a4,4,0,0,1-2.42-.69c-2.2-1.58-2.47-5.93-.73-11.94,1.86-6.44,5.76-14,11-21.3C528.81,25.86,539.63,17,545.78,17m0-1c-6.39,0-17.29,8.62-26.54,21.55-10.92,15.27-15.41,30.78-10,34.63a5,5,0,0,0,3,.88c6.39,0,17.29-8.62,26.54-21.55,10.92-15.27,15.41-30.78,10-34.63a5,5,0,0,0-3-.88Z"/><path class="cls-2" d="M559.39,154c-6.87,0-18-5.27-28.47-13.42-14.31-11.19-23.15-24.78-19.31-29.7,1-1.22,2.64-1.84,5-1.84,6.87,0,18,5.27,28.47,13.42,14.31,11.19,23.15,24.78,19.31,29.7C563.43,153.36,561.75,154,559.39,154Z"/><path d="M516.61,109.52h0c6.76,0,17.82,5.22,28.17,13.31,15.55,12.16,22.49,24.81,19.22,29-.86,1.1-2.41,1.65-4.61,1.65-6.76,0-17.82-5.22-28.17-13.31-15.55-12.16-22.49-24.81-19.22-29,.86-1.1,2.41-1.65,4.61-1.65m0-1c-2.44,0-4.31.65-5.39,2-4.09,5.22,4.6,18.83,19.39,30.39,10.87,8.5,22,13.53,28.78,13.53,2.44,0,4.31-.65,5.39-2,4.09-5.22-4.6-18.83-19.39-30.39-10.87-8.5-22-13.53-28.78-13.53Z"/><path class="cls-2" d="M531.65,90.44c-6.09,0-10-1.45-11-4.1s1.21-6.72,6.17-10.9c5.17-4.35,12.66-8.51,21.11-11.7,8.72-3.29,17.62-5.18,24.41-5.18,6.09,0,10,1.45,11,4.1s-1.21,6.72-6.17,10.9c-5.17,4.35-12.66,8.51-21.11,11.7C547.34,88.55,538.44,90.44,531.65,90.44Z"/><path d="M572.35,59.06h0c5.78,0,9.61,1.37,10.52,3.78,1.88,5-8.52,15-27,22-8.67,3.28-17.51,5.15-24.24,5.15-5.78,0-9.61-1.37-10.52-3.78-1.88-5,8.52-15,27-22,8.67-3.28,17.51-5.15,24.24-5.15m0-1c-6.63,0-15.42,1.75-24.59,5.21-17.57,6.64-29.91,17-27.57,23.25,1.12,3,5.39,4.42,11.46,4.42,6.63,0,15.42-1.75,24.59-5.21,17.57-6.64,29.91-17,27.57-23.25-1.12-3-5.39-4.42-11.46-4.42Z"/><path class="cls-2" d="M520.59,77.73a5.44,5.44,0,0,1-4.16-1.46c-2-2.15-1.41-6.68,1.61-12.42,3.14-6,8.52-12.65,15.14-18.79,10.2-9.45,21.55-15.79,28.23-15.79a5.44,5.44,0,0,1,4.16,1.46c2,2.15,1.41,6.68-1.61,12.42-3.14,6-8.52,12.65-15.14,18.79C538.62,71.39,527.27,77.73,520.59,77.73Z"/><path d="M561.41,29.77h0a5,5,0,0,1,3.8,1.3c1.84,2,1.22,6.31-1.69,11.85-3.12,5.93-8.46,12.55-15,18.65-10.12,9.37-21.32,15.66-27.89,15.66a5,5,0,0,1-3.8-1.3c-1.84-2-1.22-6.31,1.69-11.85,3.12-5.93,8.46-12.55,15-18.65,10.12-9.37,21.32-15.66,27.89-15.66m0-1c-6.65,0-17.92,6.06-28.57,15.93-13.77,12.76-21.29,27.05-16.78,31.91a5.94,5.94,0,0,0,4.53,1.62c6.65,0,17.92-6.06,28.57-15.93,13.77-12.76,21.29-27,16.78-31.91a5.94,5.94,0,0,0-4.53-1.62Z"/><path class="cls-2" d="M425,145.15c-3.46,0-5.81-.9-6.82-2.61-1.49-2.53,0-6.83,4.21-11.8,4.34-5.17,11-10.55,18.78-15.14,10.18-6,20.86-9.75,27.87-9.75,3.46,0,5.81.9,6.82,2.61,1.49,2.53,0,6.83-4.21,11.8-4.34,5.17-11,10.55-18.78,15.14C442.67,141.41,432,145.15,425,145.15Z"/><path d="M469,105.35v1c2.28,0,5.24.41,6.39,2.36,2.7,4.58-5.82,16.22-22.81,26.26-10.11,6-20.69,9.68-27.62,9.68-2.28,0-5.24-.41-6.39-2.36-2.7-4.58,5.82-16.22,22.81-26.26,10.11-6,20.69-9.68,27.62-9.68v-1m0,0c-6.89,0-17.44,3.5-28.12,9.82-16.17,9.55-26.54,21.92-23.17,27.62,1.14,1.94,3.71,2.86,7.25,2.86,6.89,0,17.44-3.5,28.12-9.82,16.17-9.55,26.54-21.92,23.17-27.62-1.14-1.94-3.71-2.86-7.25-2.86Z"/><path class="cls-2" d="M457.7,98.92a83.69,83.69,0,0,1-18.25-2.21c-17.71-4-31.5-12.56-30.12-18.64.85-3.7,7.35-6,17-6a83.69,83.69,0,0,1,18.25,2.21c17.71,4,31.5,12.56,30.12,18.64C473.82,96.63,467.32,98.92,457.7,98.92Z"/><path d="M426.3,72.58h0a84,84,0,0,1,18.14,2.19c8.75,2,16.69,5.06,22.35,8.63,5.3,3.35,8,6.78,7.39,9.42-.79,3.46-7.1,5.6-16.48,5.6a84,84,0,0,1-18.14-2.19c-8.75-2-16.69-5.06-22.35-8.63-5.3-3.35-8-6.78-7.39-9.42.79-3.46,7.1-5.6,16.48-5.6m0-1c-9.63,0-16.51,2.25-17.45,6.38C407.38,84.42,421,93,439.34,97.2a84.53,84.53,0,0,0,18.36,2.22c9.63,0,16.51-2.25,17.45-6.38C476.62,86.58,463,78,444.66,73.8a84.53,84.53,0,0,0-18.36-2.22Z"/><path class="cls-2" d="M465.36,86.71c-7.05,0-16.55-2.45-26.07-6.72-16.57-7.44-28.4-18.52-25.85-24.21,1-2.25,4.28-3.49,9.2-3.49,7.05,0,16.55,2.45,26.07,6.72,16.57,7.44,28.4,18.52,25.85,24.21C473.55,85.47,470.28,86.71,465.36,86.71Z"/><path d="M422.64,51.79v1c7,0,16.41,2.43,25.87,6.67,8.18,3.68,15.36,8.25,20.21,12.87,4.53,4.32,6.49,8.21,5.39,10.69-.93,2.06-4,3.19-8.75,3.19-7,0-16.41-2.43-25.87-6.67-8.18-3.68-15.36-8.25-20.21-12.87-4.53-4.32-6.49-8.21-5.39-10.69.93-2.06,4-3.19,8.75-3.19v-1m0,0c-5,0-8.51,1.23-9.66,3.78-2.71,6,9,17.19,26.11,24.88,9.9,4.44,19.45,6.76,26.27,6.76,5,0,8.51-1.23,9.66-3.78,2.71-6.05-9-17.19-26.11-24.88-9.9-4.44-19.45-6.76-26.27-6.76Z"/></g></g></svg>