<?xml version="1.0" encoding="utf-8"?>
<!-- Generator: Adobe Illustrator 26.1.0, SVG Export Plug-In . SVG Version: 6.00 Build 0)  -->
<svg version="1.1" id="Layer_1" xmlns="http://www.w3.org/2000/svg" xmlns:xlink="http://www.w3.org/1999/xlink" x="0px" y="0px"
	 viewBox="0 0 1366 768" style="enable-background:new 0 0 1366 768;" xml:space="preserve">
<style type="text/css">
	.st0{fill:#0000FF;}
	.st1{fill:#FFFFFF;}
	.st2{fill:url(#SVGID_1_);}
</style>
<g>
	<ellipse class="st0" cx="811.5" cy="317.5" rx="162" ry="80"/>
	<path d="M811.5,238c89.05,0,161.5,35.66,161.5,79.5S900.55,397,811.5,397S650,361.34,650,317.5S722.45,238,811.5,238 M811.5,237
		c-89.75,0-162.5,36.04-162.5,80.5S721.75,398,811.5,398S974,361.96,974,317.5S901.25,237,811.5,237L811.5,237z"/>
</g>
<g>
	<ellipse class="st1" cx="893" cy="321" rx="21.5" ry="43.5"/>
	<path d="M893,278c11.58,0,21,19.29,21,43s-9.42,43-21,43s-21-19.29-21-43S881.42,278,893,278 M893,277c-12.15,0-22,19.7-22,44
		s9.85,44,22,44s22-19.7,22-44S905.15,277,893,277L893,277z"/>
</g>
<g>
	<ellipse class="st1" cx="798.5" cy="321" rx="21" ry="43.5"/>
	<path d="M798.5,278c5.34,0,10.42,4.38,14.3,12.33c4,8.18,6.2,19.07,6.2,30.67s-2.2,22.5-6.2,30.67
		c-3.88,7.95-8.96,12.33-14.3,12.33s-10.42-4.38-14.3-12.33c-4-8.18-6.2-19.07-6.2-30.67s2.2-22.5,6.2-30.67
		C788.08,282.38,793.16,278,798.5,278 M798.5,277c-11.87,0-21.5,19.7-21.5,44s9.63,44,21.5,44s21.5-19.7,21.5-44
		S810.37,277,798.5,277L798.5,277z"/>
</g>
<g>
	<linearGradient id="SVGID_1_" gradientUnits="userSpaceOnUse" x1="1122.5" y1="324" x2="1169.5" y2="324">
		<stop  offset="0" style="stop-color:#F7931E"/>
		<stop  offset="1" style="stop-color:#F15A24"/>
	</linearGradient>
	<circle class="st2" cx="1146" cy="324" r="23.5"/>
	<path d="M1146,301c12.68,0,23,10.32,23,23s-10.32,23-23,23s-23-10.32-23-23S1133.32,301,1146,301 M1146,300
		c-13.25,0-24,10.75-24,24s10.75,24,24,24s24-10.75,24-24S1159.25,300,1146,300L1146,300z"/>
</g>
<g>
	<ellipse class="st1" cx="1144" cy="266" rx="11.5" ry="33.5"/>
	<path d="M1144,233c5.31,0,11,13.26,11,33s-5.69,33-11,33s-11-13.26-11-33S1138.69,233,1144,233 M1144,232c-6.63,0-12,15.22-12,34
		s5.37,34,12,34s12-15.22,12-34S1150.63,232,1144,232L1144,232z"/>
</g>
<g>
	<path class="st1" d="M1136.54,302.98c-6.15,0-13.55-13.54-16.84-30.83c-3.4-17.84-1.09-33.89,5.03-35.06
		c0.24-0.04,0.48-0.07,0.72-0.07c6.15,0,13.55,13.54,16.84,30.83c3.4,17.84,1.09,33.89-5.03,35.06
		C1137.03,302.95,1136.79,302.98,1136.54,302.98z"/>
	<path d="M1125.46,237.52c5.08,0,12.77,11.63,16.35,30.42c3.69,19.39,0.59,33.48-4.63,34.48c-0.21,0.04-0.42,0.06-0.63,0.06
		c-5.08,0-12.77-11.63-16.35-30.42c-1.68-8.81-2.05-17.31-1.04-23.94c0.94-6.19,3.01-10.03,5.67-10.54
		C1125.03,237.54,1125.24,237.52,1125.46,237.52 M1125.46,236.52c-0.27,0-0.55,0.03-0.82,0.08c-6.51,1.24-8.94,17.2-5.43,35.64
		c3.37,17.68,10.97,31.23,17.33,31.23c0.27,0,0.55-0.03,0.82-0.08c6.51-1.24,8.94-17.2,5.43-35.64
		C1139.42,250.07,1131.81,236.52,1125.46,236.52L1125.46,236.52z"/>
</g>
<g>
	<ellipse class="st1" cx="1147" cy="382" rx="11.5" ry="33.5"/>
	<path d="M1147,349c5.31,0,11,13.26,11,33s-5.69,33-11,33s-11-13.26-11-33S1141.69,349,1147,349 M1147,348c-6.63,0-12,15.22-12,34
		s5.37,34,12,34s12-15.22,12-34S1153.63,348,1147,348L1147,348z"/>
</g>
<g>
	<path class="st1" d="M1087.54,335.55c-18.18,0-33-5.08-33.04-11.32c-0.02-2.93,3.48-5.87,9.58-8.07
		c6.36-2.28,14.83-3.57,23.86-3.61l0.52,0c18.18,0,33,5.08,33.04,11.32c0.02,2.93-3.48,5.87-9.58,8.07
		c-6.36,2.28-14.83,3.57-23.86,3.61L1087.54,335.55z"/>
	<path d="M1088.46,312.05v1h0c19.43,0,32.51,5.6,32.53,10.82c0.01,2.71-3.36,5.48-9.25,7.59c-6.31,2.26-14.72,3.54-23.69,3.58
		l-0.52,0c-19.43,0-32.51-5.6-32.54-10.82c-0.01-2.71,3.36-5.48,9.25-7.59c6.31-2.26,14.72-3.54,23.69-3.58l0.52,0L1088.46,312.05
		 M1088.46,312.05c-0.17,0-0.35,0-0.53,0c-18.78,0.1-33.97,5.55-33.94,12.18c0.04,6.57,15,11.82,33.54,11.82c0.17,0,0.35,0,0.53,0
		c18.78-0.1,33.97-5.55,33.94-12.18C1121.96,317.31,1107,312.05,1088.46,312.05L1088.46,312.05z"/>
</g>
<g>
	<path class="st1" d="M1194.24,398.44c-6.29,0-17.12-9.25-25.76-21.99c-10.19-15.03-14.44-30.68-9.29-34.18
		c0.7-0.47,1.56-0.72,2.56-0.72c6.29,0,17.12,9.25,25.76,21.99c10.19,15.03,14.44,30.68,9.29,34.18
		C1196.1,398.2,1195.24,398.44,1194.24,398.44z"/>
	<path d="M1161.76,342.06L1161.76,342.06c6.13,0,16.79,9.15,25.34,21.77c11.08,16.34,13.82,30.5,9.42,33.49
		c-0.62,0.42-1.38,0.63-2.28,0.63c-6.13,0-16.79-9.15-25.34-21.77c-11.08-16.34-13.82-30.5-9.42-33.49
		C1160.09,342.27,1160.86,342.06,1161.76,342.06 M1161.76,341.06c-1.09,0-2.05,0.26-2.84,0.8c-5.48,3.72-1.39,19.33,9.15,34.87
		c9,13.28,19.8,22.21,26.17,22.21c1.09,0,2.05-0.26,2.84-0.8c5.48-3.72,1.39-19.33-9.15-34.87
		C1178.93,349.99,1168.13,341.06,1161.76,341.06L1161.76,341.06z"/>
</g>
<g>
	<path class="st1" d="M1203.54,335.09c-18.18,0-33-5.08-33.04-11.32c-0.03-6.23,15.28-11.58,33.44-11.68l0.52,0
		c18.18,0,33,5.08,33.04,11.32c0.02,2.93-3.48,5.87-9.58,8.07c-6.36,2.28-14.83,3.57-23.86,3.61L1203.54,335.09z"/>
	<path d="M1204.46,311.59v1h0c19.43,0,32.51,5.6,32.53,10.82c0.01,2.71-3.36,5.48-9.25,7.59c-6.31,2.26-14.72,3.54-23.69,3.58
		l-0.52,0c-19.43,0-32.51-5.6-32.54-10.82c-0.01-2.71,3.36-5.48,9.25-7.59c6.31-2.26,14.72-3.54,23.69-3.58l0.52,0L1204.46,311.59
		 M1204.46,311.59c-0.17,0-0.35,0-0.53,0c-18.78,0.1-33.97,5.55-33.94,12.18c0.04,6.57,15,11.82,33.54,11.82c0.17,0,0.35,0,0.53,0
		c18.78-0.1,33.97-5.55,33.94-12.18C1237.96,316.85,1223,311.59,1204.46,311.59L1204.46,311.59z"/>
</g>
<g>
	<path class="st1" d="M1219.36,365.71c-7.05,0-16.56-2.45-26.07-6.72c-8.23-3.7-15.46-8.3-20.35-12.96c-4.7-4.47-6.7-8.58-5.5-11.25
		c1.01-2.25,4.28-3.49,9.2-3.49c7.05,0,16.56,2.45,26.07,6.72c16.57,7.44,28.4,18.53,25.85,24.21
		C1227.55,364.47,1224.28,365.71,1219.36,365.71z"/>
	<path d="M1176.64,330.79v1c6.98,0,16.41,2.43,25.87,6.68c8.18,3.67,15.36,8.24,20.21,12.87c4.53,4.32,6.5,8.21,5.39,10.69
		c-0.93,2.06-4.03,3.2-8.74,3.2c-6.99,0-16.41-2.43-25.87-6.68c-8.18-3.67-15.36-8.24-20.21-12.87c-4.53-4.32-6.5-8.21-5.39-10.69
		c0.93-2.06,4.03-3.2,8.74-3.2L1176.64,330.79 M1176.64,330.79c-4.98,0-8.51,1.24-9.65,3.79c-2.71,6.05,8.97,17.18,26.1,24.87
		c9.9,4.45,19.45,6.77,26.28,6.77c4.98,0,8.51-1.24,9.65-3.79c2.71-6.05-8.97-17.18-26.1-24.87
		C1193.01,333.11,1183.46,330.79,1176.64,330.79L1176.64,330.79z"/>
</g>
<g>
	<path class="st1" d="M1117.36,311.71c-7.05,0-16.56-2.45-26.07-6.72c-8.23-3.7-15.46-8.3-20.35-12.96c-4.7-4.47-6.7-8.58-5.5-11.25
		c1.01-2.25,4.28-3.49,9.2-3.49c7.05,0,16.56,2.45,26.07,6.72c16.57,7.44,28.4,18.53,25.85,24.21
		C1125.55,310.47,1122.28,311.71,1117.36,311.71z"/>
	<path d="M1074.64,276.79v1c6.98,0,16.41,2.43,25.87,6.68c8.18,3.67,15.36,8.24,20.21,12.87c4.53,4.32,6.5,8.21,5.39,10.69
		c-0.93,2.06-4.03,3.2-8.74,3.2c-6.99,0-16.41-2.43-25.87-6.68c-8.18-3.67-15.36-8.24-20.21-12.87c-4.53-4.32-6.5-8.21-5.39-10.69
		c0.93-2.06,4.03-3.2,8.74-3.2L1074.64,276.79 M1074.64,276.79c-4.98,0-8.51,1.24-9.65,3.79c-2.71,6.05,8.97,17.18,26.1,24.87
		c9.9,4.45,19.45,6.77,26.28,6.77c4.98,0,8.51-1.24,9.65-3.79c2.71-6.05-8.97-17.18-26.1-24.87
		C1091.01,279.11,1081.46,276.79,1074.64,276.79L1074.64,276.79z"/>
</g>
<g>
	<path class="st1" d="M1177.65,315.44c-6.08,0-9.99-1.46-10.99-4.1c-2.2-5.83,10.29-16.18,27.27-22.6
		c8.72-3.3,17.62-5.19,24.42-5.19c6.08,0,9.99,1.46,10.99,4.1c1.04,2.74-1.21,6.72-6.17,10.9c-5.16,4.35-12.66,8.51-21.1,11.7
		C1193.34,313.55,1184.44,315.44,1177.65,315.44z"/>
	<path d="M1218.35,284.06L1218.35,284.06c5.78,0,9.61,1.38,10.52,3.78c0.96,2.53-1.24,6.3-6.03,10.34
		c-5.12,4.32-12.56,8.44-20.96,11.61c-8.67,3.28-17.5,5.15-24.24,5.15c-5.78,0-9.61-1.38-10.52-3.78c-0.96-2.53,1.24-6.3,6.03-10.34
		c5.12-4.32,12.56-8.44,20.96-11.61C1202.78,285.93,1211.62,284.06,1218.35,284.06 M1218.35,283.06c-6.63,0-15.42,1.75-24.59,5.22
		c-17.57,6.64-29.91,17.04-27.56,23.24c1.12,2.96,5.39,4.43,11.45,4.43c6.63,0,15.42-1.75,24.59-5.22
		c17.57-6.64,29.91-17.04,27.56-23.24C1228.69,284.52,1224.42,283.06,1218.35,283.06L1218.35,283.06z"/>
</g>
<g>
	<path class="st1" d="M1075.65,368.44c-6.08,0-9.99-1.46-10.99-4.1c-2.2-5.83,10.29-16.18,27.27-22.6
		c8.72-3.3,17.62-5.19,24.42-5.19c6.08,0,9.99,1.46,10.99,4.1c1.04,2.74-1.21,6.72-6.17,10.9c-5.16,4.35-12.66,8.51-21.1,11.7
		C1091.34,366.55,1082.44,368.44,1075.65,368.44z"/>
	<path d="M1116.35,337.06L1116.35,337.06c5.78,0,9.61,1.38,10.52,3.78c0.96,2.53-1.24,6.3-6.03,10.34
		c-5.12,4.32-12.56,8.44-20.96,11.61c-8.67,3.28-17.5,5.15-24.24,5.15c-5.78,0-9.61-1.38-10.52-3.78c-0.96-2.53,1.24-6.3,6.03-10.34
		c5.12-4.32,12.56-8.44,20.96-11.61C1100.78,338.93,1109.62,337.06,1116.35,337.06 M1116.35,336.06c-6.63,0-15.42,1.75-24.59,5.22
		c-17.57,6.64-29.91,17.04-27.56,23.24c1.12,2.96,5.39,4.43,11.45,4.43c6.63,0,15.42-1.75,24.59-5.22
		c17.57-6.64,29.91-17.04,27.56-23.24C1126.69,337.52,1122.42,336.06,1116.35,336.06L1116.35,336.06z"/>
</g>
<g>
	<path class="st1" d="M1173.17,409.85c-6.07,0-14.52-12.81-19.22-29.17c-2.49-8.68-3.65-17.17-3.25-23.91
		c0.38-6.48,2.22-10.65,5.04-11.46c0.35-0.1,0.71-0.15,1.09-0.15c6.08,0,14.52,12.81,19.22,29.17c2.49,8.68,3.65,17.17,3.25,23.91
		c-0.38,6.47-2.22,10.65-5.04,11.46C1173.91,409.8,1173.54,409.85,1173.17,409.85z"/>
	<path d="M1156.83,345.65c5.14,0,13.56,10.78,18.74,28.81c2.48,8.62,3.63,17.05,3.23,23.74c-0.37,6.25-2.08,10.27-4.68,11.01
		c-0.3,0.09-0.62,0.13-0.95,0.13c-5.14,0-13.56-10.77-18.74-28.81c-2.48-8.62-3.63-17.05-3.23-23.74
		c0.37-6.25,2.08-10.27,4.68-11.01C1156.18,345.7,1156.5,345.65,1156.83,345.65 M1156.83,344.65c-0.42,0-0.83,0.06-1.23,0.17
		c-6.37,1.83-7.33,17.95-2.14,35.99c4.87,16.92,13.41,29.53,19.7,29.53c0.42,0,0.83-0.06,1.23-0.17c6.37-1.83,7.33-17.95,2.14-35.99
		C1171.67,357.26,1163.13,344.65,1156.83,344.65L1156.83,344.65z"/>
</g>
<g>
	<path class="st1" d="M1127.88,306.61c-6.44,0-17.49-8.2-26.86-19.93c-5.63-7.05-9.96-14.45-12.18-20.83
		c-2.13-6.13-2.04-10.69,0.25-12.52c0.78-0.62,1.8-0.93,3.03-0.93c6.44,0,17.49,8.19,26.86,19.93
		c11.33,14.19,16.79,29.46,11.92,33.35C1130.13,306.29,1129.11,306.61,1127.88,306.61z"/>
	<path d="M1092.12,252.89L1092.12,252.89c6.3,0,17.19,8.12,26.47,19.74c5.6,7.01,9.9,14.35,12.1,20.68
		c2.06,5.91,2.02,10.28-0.09,11.97c-0.68,0.55-1.6,0.82-2.72,0.82c-6.3,0-17.19-8.12-26.47-19.74c-5.6-7.01-9.9-14.35-12.1-20.68
		c-2.06-5.91-2.02-10.28,0.09-11.97C1090.09,253.17,1091,252.89,1092.12,252.89 M1092.12,251.89c-1.33,0-2.46,0.34-3.34,1.04
		c-5.18,4.14,0.13,19.38,11.85,34.05c9.72,12.17,20.8,20.12,27.25,20.12c1.33,0,2.46-0.34,3.34-1.04
		c5.18-4.14-0.13-19.38-11.85-34.05C1109.66,259.84,1098.57,251.89,1092.12,251.89L1092.12,251.89z"/>
</g>
<g>
	<path class="st1" d="M1151.22,302.21c-0.3,0-0.6-0.04-0.89-0.1c-2.86-0.67-4.9-4.76-5.6-11.2c-0.73-6.71,0.01-15.25,2.07-24.04
		c3.97-16.87,11.86-30.08,17.97-30.08c0.3,0,0.6,0.03,0.89,0.1c6.07,1.43,7.68,17.57,3.52,35.24
		C1165.23,289,1157.33,302.21,1151.22,302.21z"/>
	<path d="M1164.78,236.29v1c0.26,0,0.53,0.03,0.78,0.09c5.17,1.22,7.67,15.43,3.15,34.64c-4.32,18.34-12.44,29.69-17.49,29.69
		c-0.26,0-0.53-0.03-0.78-0.09c-5.17-1.22-7.67-15.43-3.15-34.64c4.32-18.34,12.44-29.69,17.49-29.69L1164.78,236.29
		 M1164.78,236.29c-6.32,0-14.38,13.12-18.46,30.46c-4.3,18.28-2.56,34.33,3.89,35.84c0.33,0.08,0.67,0.12,1.01,0.12
		c6.32,0,14.38-13.12,18.46-30.46c4.3-18.28,2.56-34.33-3.89-35.84C1165.46,236.33,1165.12,236.29,1164.78,236.29L1164.78,236.29z"
		/>
</g>
<g>
	<path class="st1" d="M1128.22,412.21c-0.3,0-0.6-0.04-0.89-0.1c-2.86-0.67-4.9-4.76-5.6-11.2c-0.73-6.71,0.01-15.25,2.07-24.04
		c3.97-16.87,11.86-30.08,17.97-30.08c0.3,0,0.6,0.03,0.89,0.1c6.07,1.43,7.68,17.57,3.52,35.24
		C1142.23,399,1134.33,412.21,1128.22,412.21z"/>
	<path d="M1141.78,346.29v1c0.26,0,0.53,0.03,0.78,0.09c5.17,1.22,7.67,15.43,3.15,34.64c-4.32,18.34-12.44,29.69-17.49,29.69
		c-0.26,0-0.53-0.03-0.78-0.09c-5.17-1.22-7.67-15.43-3.15-34.64c4.32-18.34,12.44-29.69,17.49-29.69L1141.78,346.29
		 M1141.78,346.29c-6.32,0-14.38,13.12-18.46,30.46c-4.3,18.28-2.56,34.33,3.89,35.84c0.33,0.08,0.67,0.12,1.01,0.12
		c6.32,0,14.38-13.12,18.46-30.46c4.3-18.28,2.56-34.33-3.89-35.84C1142.46,346.33,1142.12,346.29,1141.78,346.29L1141.78,346.29z"
		/>
</g>
<g>
	<path class="st1" d="M1096.22,397.53c-1.07,0-1.98-0.26-2.71-0.78c-2.39-1.71-2.72-6.26-0.92-12.49
		c1.88-6.49,5.8-14.11,11.05-21.45c8.99-12.56,19.74-21.34,26.14-21.34c1.07,0,1.98,0.26,2.71,0.78c2.39,1.71,2.72,6.26,0.92,12.49
		c-1.88,6.49-5.8,14.11-11.05,21.45C1113.37,388.75,1102.62,397.53,1096.22,397.53z"/>
	<path d="M1129.78,341.97L1129.78,341.97c0.96,0,1.78,0.23,2.41,0.69c2.2,1.58,2.47,5.93,0.73,11.94c-1.86,6.44-5.76,14-10.98,21.3
		c-8.76,12.24-19.58,21.13-25.73,21.13c-0.96,0-1.78-0.23-2.42-0.69c-2.2-1.58-2.47-5.93-0.73-11.94c1.86-6.44,5.76-14,10.98-21.3
		C1112.81,350.86,1123.63,341.97,1129.78,341.97 M1129.78,340.97c-6.4,0-17.29,8.62-26.54,21.55
		c-10.92,15.27-15.41,30.78-10.02,34.64c0.83,0.59,1.84,0.87,3,0.87c6.4,0,17.29-8.62,26.54-21.55
		c10.92-15.27,15.41-30.78,10.02-34.64C1131.95,341.25,1130.94,340.97,1129.78,340.97L1129.78,340.97z"/>
</g>
<g>
	<path class="st1" d="M1071.19,355.9c-6.2,0-10.17-1.48-11.17-4.16c-1.02-2.75,1.25-6.71,6.23-10.86
		c5.19-4.33,12.7-8.44,21.17-11.58c8.77-3.26,17.38-5.05,24.24-5.05c6.2,0,10.17,1.48,11.17,4.16c1.02,2.75-1.25,6.71-6.23,10.86
		c-5.19,4.33-12.7,8.44-21.17,11.58C1086.66,354.1,1078.05,355.9,1071.19,355.9z"/>
	<path d="M1111.66,323.73v1c5.89,0,9.79,1.4,10.7,3.84c1.85,4.98-8.6,14.93-27.1,21.81c-8.59,3.19-17.36,5.02-24.07,5.02
		c-5.89,0-9.79-1.4-10.7-3.84c-1.85-4.98,8.6-14.93,27.1-21.81c8.59-3.19,17.36-5.02,24.07-5.02L1111.66,323.73 M1111.66,323.73
		c-6.61,0-15.32,1.7-24.41,5.09c-17.6,6.54-30,16.88-27.69,23.09c1.12,3,5.46,4.49,11.64,4.49c6.61,0,15.32-1.7,24.41-5.09
		c17.6-6.54,30-16.88,27.69-23.09C1122.18,325.22,1117.84,323.73,1111.66,323.73L1111.66,323.73z"/>
</g>
<g>
	<path class="st1" d="M1161.22,304.53c-1.07,0-1.98-0.26-2.71-0.78c-2.39-1.71-2.72-6.26-0.92-12.49
		c1.88-6.49,5.8-14.11,11.05-21.45c8.99-12.56,19.73-21.34,26.14-21.34c1.07,0,1.98,0.26,2.71,0.78
		c5.07,3.63,0.43,19.17-10.13,33.94C1178.37,295.75,1167.62,304.53,1161.22,304.53z"/>
	<path d="M1194.78,248.97L1194.78,248.97c0.96,0,1.78,0.23,2.41,0.69c2.2,1.58,2.47,5.93,0.73,11.94c-1.86,6.44-5.76,14-10.98,21.3
		c-8.76,12.24-19.58,21.13-25.73,21.13c-0.96,0-1.78-0.23-2.42-0.69c-2.2-1.58-2.47-5.93-0.73-11.94c1.86-6.44,5.76-14,10.98-21.3
		C1177.81,257.86,1188.63,248.97,1194.78,248.97 M1194.78,247.97c-6.4,0-17.29,8.62-26.54,21.55
		c-10.92,15.27-15.41,30.78-10.02,34.64c0.83,0.59,1.84,0.87,3,0.87c6.4,0,17.29-8.62,26.54-21.55
		c10.92-15.27,15.41-30.78,10.02-34.64C1196.95,248.25,1195.94,247.97,1194.78,247.97L1194.78,247.97z"/>
</g>
<g>
	<path class="st1" d="M1208.39,385.98c-6.87,0-18.04-5.27-28.47-13.42c-14.31-11.19-23.15-24.78-19.31-29.69
		c0.96-1.23,2.64-1.85,5-1.85c6.87,0,18.04,5.27,28.47,13.42c7.11,5.56,13.03,11.76,16.66,17.45c3.49,5.47,4.45,9.93,2.65,12.24
		C1212.43,385.36,1210.75,385.98,1208.39,385.98z"/>
	<path d="M1165.61,341.52L1165.61,341.52c6.76,0,17.82,5.23,28.16,13.32c15.55,12.16,22.49,24.81,19.22,28.99
		c-0.86,1.1-2.41,1.66-4.61,1.66c-6.76,0-17.82-5.23-28.16-13.32c-15.55-12.16-22.49-24.81-19.22-28.99
		C1161.86,342.07,1163.41,341.52,1165.61,341.52 M1165.61,340.52c-2.44,0-4.31,0.66-5.4,2.04c-4.08,5.22,4.6,18.83,19.39,30.4
		c10.87,8.5,22.01,13.53,28.78,13.53c2.44,0,4.31-0.66,5.4-2.04c4.08-5.22-4.6-18.83-19.39-30.4
		C1183.52,345.55,1172.38,340.52,1165.61,340.52L1165.61,340.52z"/>
</g>
<g>
	<path class="st1" d="M1180.65,322.44c-6.08,0-9.99-1.46-10.99-4.1c-2.2-5.83,10.29-16.18,27.27-22.6
		c8.72-3.3,17.62-5.19,24.42-5.19c6.08,0,9.99,1.46,10.99,4.1c1.04,2.74-1.21,6.72-6.17,10.9c-5.16,4.35-12.66,8.51-21.1,11.7
		C1196.34,320.55,1187.44,322.44,1180.65,322.44z"/>
	<path d="M1221.35,291.06L1221.35,291.06c5.78,0,9.61,1.38,10.52,3.78c0.96,2.53-1.24,6.3-6.03,10.34
		c-5.12,4.32-12.56,8.44-20.96,11.61c-8.67,3.28-17.5,5.15-24.24,5.15c-5.78,0-9.61-1.38-10.52-3.78c-0.96-2.53,1.24-6.3,6.03-10.34
		c5.12-4.32,12.56-8.44,20.96-11.61C1205.78,292.93,1214.62,291.06,1221.35,291.06 M1221.35,290.06c-6.63,0-15.42,1.75-24.59,5.22
		c-17.57,6.64-29.91,17.04-27.56,23.24c1.12,2.96,5.39,4.43,11.45,4.43c6.63,0,15.42-1.75,24.59-5.22
		c17.57-6.64,29.91-17.04,27.56-23.24C1231.69,291.52,1227.42,290.06,1221.35,290.06L1221.35,290.06z"/>
</g>
<g>
	<path class="st1" d="M1169.59,309.73c-1.86,0-3.26-0.49-4.16-1.47c-2-2.15-1.41-6.68,1.61-12.42c3.14-5.98,8.52-12.65,15.14-18.78
		c10.2-9.45,21.54-15.8,28.23-15.8c1.86,0,3.26,0.49,4.16,1.47c2,2.15,1.41,6.68-1.61,12.42c-3.14,5.98-8.52,12.65-15.14,18.78
		C1187.62,303.38,1176.27,309.73,1169.59,309.73z"/>
	<path d="M1210.41,261.77L1210.41,261.77c1.71,0,2.99,0.44,3.79,1.31c3.61,3.9-2.25,17.08-16.73,30.5
		c-10.11,9.37-21.32,15.66-27.89,15.66c-1.72,0-2.99-0.44-3.79-1.31c-3.61-3.9,2.25-17.08,16.73-30.5
		C1192.64,268.06,1203.84,261.77,1210.41,261.77 M1210.41,260.77c-6.65,0-17.92,6.07-28.57,15.93
		c-13.77,12.76-21.29,27.05-16.79,31.91c1.02,1.1,2.58,1.63,4.53,1.63c6.65,0,17.92-6.07,28.57-15.93
		c13.77-12.76,21.29-27.05,16.79-31.91C1213.92,261.29,1212.36,260.77,1210.41,260.77L1210.41,260.77z"/>
</g>
<g>
	<path class="st1" d="M1073.98,377.15c-3.45,0-5.81-0.9-6.82-2.61c-1.49-2.53,0.04-6.83,4.21-11.8
		c4.34-5.18,11.01-10.55,18.78-15.15c10.18-6.01,20.86-9.75,27.87-9.75c3.45,0,5.81,0.9,6.82,2.61c3.17,5.37-7.36,17.71-22.99,26.94
		C1091.67,373.41,1080.99,377.15,1073.98,377.15z"/>
	<path d="M1118.02,337.35v1c2.28,0,5.23,0.41,6.39,2.36c2.7,4.57-5.82,16.22-22.82,26.26c-10.1,5.97-20.69,9.68-27.62,9.68
		c-2.28,0-5.24-0.41-6.39-2.36c-2.7-4.57,5.82-16.22,22.82-26.26c10.1-5.97,20.69-9.68,27.62-9.68L1118.02,337.35 M1118.02,337.35
		c-6.89,0-17.44,3.5-28.13,9.82c-16.17,9.55-26.54,21.92-23.17,27.63c1.14,1.93,3.72,2.85,7.25,2.85c6.89,0,17.44-3.5,28.13-9.82
		c16.17-9.55,26.54-21.92,23.17-27.63C1124.13,338.27,1121.56,337.35,1118.02,337.35L1118.02,337.35z"/>
</g>
<g>
	<path class="st1" d="M1106.7,330.92c-5.58,0-11.9-0.76-18.25-2.21c-17.71-4.03-31.5-12.57-30.12-18.64
		c0.84-3.7,7.34-5.99,16.97-5.99c5.58,0,11.9,0.76,18.25,2.21c17.71,4.03,31.5,12.57,30.12,18.64
		C1122.82,328.63,1116.32,330.92,1106.7,330.92z"/>
	<path d="M1075.3,304.58L1075.3,304.58c5.55,0,11.82,0.76,18.14,2.2c19.25,4.38,30.92,12.87,29.74,18.05
		c-0.79,3.46-7.1,5.6-16.48,5.6c-5.55,0-11.82-0.76-18.14-2.2c-19.25-4.38-30.92-12.87-29.74-18.05
		C1059.61,306.72,1065.92,304.58,1075.3,304.58 M1075.3,303.58c-9.63,0-16.52,2.25-17.46,6.38c-1.47,6.46,12.18,15.08,30.49,19.24
		c6.61,1.5,12.92,2.22,18.36,2.22c9.63,0,16.52-2.25,17.46-6.38c1.47-6.46-12.18-15.08-30.49-19.24
		C1087.05,304.3,1080.74,303.58,1075.3,303.58L1075.3,303.58z"/>
</g>
<g>
	<path class="st1" d="M1114.36,318.71c-7.05,0-16.56-2.45-26.07-6.72c-8.23-3.7-15.46-8.3-20.35-12.96c-4.7-4.47-6.7-8.58-5.5-11.25
		c1.01-2.25,4.28-3.49,9.2-3.49c7.05,0,16.56,2.45,26.07,6.72c16.57,7.44,28.4,18.53,25.85,24.21
		C1122.55,317.47,1119.28,318.71,1114.36,318.71z"/>
	<path d="M1071.64,283.79v1c6.98,0,16.41,2.43,25.87,6.68c8.18,3.67,15.36,8.24,20.21,12.87c4.53,4.32,6.5,8.21,5.39,10.69
		c-0.93,2.06-4.03,3.2-8.74,3.2c-6.99,0-16.41-2.43-25.87-6.68c-8.18-3.67-15.36-8.24-20.21-12.87c-4.53-4.32-6.5-8.21-5.39-10.69
		c0.93-2.06,4.03-3.2,8.74-3.2L1071.64,283.79 M1071.64,283.79c-4.98,0-8.51,1.24-9.65,3.79c-2.71,6.05,8.97,17.18,26.1,24.87
		c9.9,4.45,19.45,6.77,26.28,6.77c4.98,0,8.51-1.24,9.65-3.79c2.71-6.05-8.97-17.18-26.1-24.87
		C1088.01,286.11,1078.46,283.79,1071.64,283.79L1071.64,283.79z"/>
</g>
</svg>
